<?xml version="1.0" encoding="iso-8859-1" standalone="no"?> 
<?xml-stylesheet href="offset.css" type="text/css"?> 
<svg xmlns="http://www.w3.org/2000/svg" xmlns:xlink="http://www.w3.org/1999/xlink" width="61.03847pt" height="67.38576pt" viewBox="-0.8 -0.8 61.03847 67.38576 "> 
<g transform="translate(0, 66.58575 ) scale(1,-1) translate(0,0.8 )"> 
<g>
 <g stroke="rgb(0.0%,0.0%,0.0%)">
 <g fill="rgb(0.0%,0.0%,0.0%)">
 <g stroke-width="0.4pt">
 <g>
 <g>
 <g stroke="rgb(50.0%,50.0%,50.0%)">
 <g fill="rgb(50.0%,50.0%,50.0%)">
 <g stroke-width="0.2pt">
 <path d=" M  0.0 0.0 M  0.0 0.0 L  56.90549 0.0 M  0.0 28.45274 L  56.90549 28.45274 M  0.0 56.8955 L  56.90549 56.8955 M  0.0 0.0 L  0.0 56.90549 M  28.45274 0.0 L  28.45274 56.90549 M  56.8955 0.0 L  56.8955 56.90549  " style="fill:none"/>
 </g>
 </g>
 </g>
 </g>
 <g>
 <g stroke-width="1.6pt">
 <path d=" M  56.90549 0.0 C  56.90549 21.90872 21.90872 56.90549 0.0 56.90549  " style="fill:none"/>
 <g>
 <g stroke="rgb(0.0%,0.0%,100.0%)">
 <g fill="rgb(0.0%,0.0%,100.0%)">
 <g fill="rgb(0.0%,0.0%,100.0%)">
 <g>
 <g stroke="rgb(0.0%,0.0%,100.0%)">
 <g fill="rgb(0.0%,0.0%,100.0%)">
 <g fill="rgb(0.0%,0.0%,100.0%)">
 <path d=" M  58.3198 21.90872 C  58.3198 22.68982 57.68658 23.32303 56.90549 23.32303 C  56.12439 23.32303 55.49118 22.68982 55.49118 21.90872 C  55.49118 21.12762 56.12439 20.49442 56.90549 20.49442 C  57.68658 20.49442 58.3198 21.12762 58.3198 21.90872 Z M  56.90549 21.90872  " style="stroke:none"/>
 </g>
 </g>
 </g>
 </g>
 <g>
 <g transform="matrix(1.0,0.0,0.0,1.0,56.90549,21.90872)">
 <g fill="rgb(0.0%,0.0%,100.0%)">
 <text style="stroke:none" transform="scale(1,-1) translate(0.0,0)" text-anchor="middle"  font-size="10"> 
</text> 
</g>
 </g>
 </g>
 </g>
 </g>
 </g>
 </g>
 <g>
 <g>
 <g transform="matrix(1.0,0.0,0.0,1.0,56.90549,28.25601)">
 <g fill="rgb(0.0%,0.0%,0.0%)">
 <text style="stroke:none" transform="scale(1,-1) translate(0.0,0)" text-anchor="middle"  font-size="10"> 
</text> 
</g>
 </g>
 </g>
 </g>
 <g>
 <g stroke="rgb(0.0%,0.0%,100.0%)">
 <g fill="rgb(0.0%,0.0%,100.0%)">
 <g fill="rgb(0.0%,0.0%,100.0%)">
 <g>
 <g stroke="rgb(0.0%,0.0%,100.0%)">
 <g fill="rgb(0.0%,0.0%,100.0%)">
 <g fill="rgb(0.0%,0.0%,100.0%)">
 <path d=" M  23.32303 56.90549 C  23.32303 57.68658 22.68982 58.3198 21.90872 58.3198 C  21.12762 58.3198 20.49442 57.68658 20.49442 56.90549 C  20.49442 56.12439 21.12762 55.49118 21.90872 55.49118 C  22.68982 55.49118 23.32303 56.12439 23.32303 56.90549 Z M  21.90872 56.90549  " style="stroke:none"/>
 </g>
 </g>
 </g>
 </g>
 <g>
 <g transform="matrix(1.0,0.0,0.0,1.0,21.90872,56.90549)">
 <g fill="rgb(0.0%,0.0%,100.0%)">
 <text style="stroke:none" transform="scale(1,-1) translate(0.0,0)" text-anchor="middle"  font-size="10"> 
</text> 
</g>
 </g>
 </g>
 </g>
 </g>
 </g>
 </g>
 <g>
 <g>
 <g transform="matrix(1.0,0.0,0.0,1.0,21.90872,63.25278)">
 <g fill="rgb(0.0%,0.0%,0.0%)">
 <text style="stroke:none" transform="scale(1,-1) translate(0.0,0)" text-anchor="middle"  font-size="10"> 
</text> 
</g>
 </g>
 </g>
 </g>
 </g>
 </g>
 <g>
 <g stroke-width="0.8pt">
 <path d=" M  28.45274 0.0 C  28.45274 15.6491 15.6491 28.45274 0.0 28.45274  " style="fill:none"/>
 </g>
 </g>
 </g>
 </g>
 </g>
 </g>
 </g>
                   </g> 
</svg> 
