<?xml version="1.0" encoding="iso-8859-1" standalone="no"?> 
<?xml-stylesheet href="offset.css" type="text/css"?> 
<svg xmlns="http://www.w3.org/2000/svg" xmlns:xlink="http://www.w3.org/1999/xlink" width="58.10548pt" height="58.10548pt" viewBox="-0.8 -0.8 58.10548 58.10548 "> 
<g transform="translate(0, 57.30548 ) scale(1,-1) translate(0,0.8 )"> 
<g>
 <g stroke="rgb(0.0%,0.0%,0.0%)">
 <g fill="rgb(0.0%,0.0%,0.0%)">
 <g stroke-width="0.4pt">
 <g>
 <g>
 <g stroke="rgb(50.0%,50.0%,50.0%)">
 <g fill="rgb(50.0%,50.0%,50.0%)">
 <g stroke-width="0.2pt">
 <path d=" M  0.0 0.0 M  0.0 0.0 L  56.90549 0.0 M  0.0 28.45274 L  56.90549 28.45274 M  0.0 56.8955 L  56.90549 56.8955 M  0.0 0.0 L  0.0 56.90549 M  28.45274 0.0 L  28.45274 56.90549 M  56.8955 0.0 L  56.8955 56.90549  " style="fill:none"/>
 </g>
 </g>
 </g>
 </g>
 <g>
 <g stroke-width="1.6pt">
 <path d=" M  28.45274 0.0 C  28.45274 14.22636 14.22636 28.45274 0.0 28.45274  " style="fill:none"/>
 <g>
 <g stroke="rgb(0.0%,0.0%,100.0%)">
 <g fill="rgb(0.0%,0.0%,100.0%)">
 <g fill="rgb(0.0%,0.0%,100.0%)">
 <g>
 <g stroke="rgb(0.0%,0.0%,100.0%)">
 <g fill="rgb(0.0%,0.0%,100.0%)">
 <g fill="rgb(0.0%,0.0%,100.0%)">
 <path d=" M  29.86705 14.22636 C  29.86705 15.00746 29.23384 15.64067 28.45274 15.64067 C  27.67165 15.64067 27.03844 15.00746 27.03844 14.22636 C  27.03844 13.44527 27.67165 12.81206 28.45274 12.81206 C  29.23384 12.81206 29.86705 13.44527 29.86705 14.22636 Z M  28.45274 14.22636  " style="stroke:none"/>
 </g>
 </g>
 </g>
 </g>
 <g>
 <g transform="matrix(1.0,0.0,0.0,1.0,28.45274,14.22636)">
 <g fill="rgb(0.0%,0.0%,100.0%)">
 <text style="stroke:none" transform="scale(1,-1) translate(0.0,0)" text-anchor="middle"  font-size="10"> 
</text> 
</g>
 </g>
 </g>
 </g>
 </g>
 </g>
 </g>
 <g>
 <g>
 <g transform="matrix(1.0,0.0,0.0,1.0,28.45274,20.57365)">
 <g fill="rgb(0.0%,0.0%,0.0%)">
 <text style="stroke:none" transform="scale(1,-1) translate(0.0,0)" text-anchor="middle"  font-size="10"> 
</text> 
</g>
 </g>
 </g>
 </g>
 <g>
 <g stroke="rgb(0.0%,0.0%,100.0%)">
 <g fill="rgb(0.0%,0.0%,100.0%)">
 <g fill="rgb(0.0%,0.0%,100.0%)">
 <g>
 <g stroke="rgb(0.0%,0.0%,100.0%)">
 <g fill="rgb(0.0%,0.0%,100.0%)">
 <g fill="rgb(0.0%,0.0%,100.0%)">
 <path d=" M  15.64067 28.45274 C  15.64067 29.23384 15.00746 29.86705 14.22636 29.86705 C  13.44527 29.86705 12.81206 29.23384 12.81206 28.45274 C  12.81206 27.67165 13.44527 27.03844 14.22636 27.03844 C  15.00746 27.03844 15.64067 27.67165 15.64067 28.45274 Z M  14.22636 28.45274  " style="stroke:none"/>
 </g>
 </g>
 </g>
 </g>
 <g>
 <g transform="matrix(1.0,0.0,0.0,1.0,14.22636,28.45274)">
 <g fill="rgb(0.0%,0.0%,100.0%)">
 <text style="stroke:none" transform="scale(1,-1) translate(0.0,0)" text-anchor="middle"  font-size="10"> 
</text> 
</g>
 </g>
 </g>
 </g>
 </g>
 </g>
 </g>
 <g>
 <g>
 <g transform="matrix(1.0,0.0,0.0,1.0,14.22636,34.80003)">
 <g fill="rgb(0.0%,0.0%,0.0%)">
 <text style="stroke:none" transform="scale(1,-1) translate(0.0,0)" text-anchor="middle"  font-size="10"> 
</text> 
</g>
 </g>
 </g>
 </g>
 </g>
 </g>
 <g>
 <g stroke-width="0.8pt">
 <path d=" M  56.90549 0.0 C  56.90549 21.90872 21.90872 56.90549 0.0 56.90549  " style="fill:none"/>
 </g>
 </g>
 </g>
 </g>
 </g>
 </g>
 </g>
                  </g> 
</svg> 
